<svg width="17" height="15" viewBox="0 0 17 15" fill="none" xmlns="http://www.w3.org/2000/svg">
<path d="M8.65479 0.5C4.21729 0.5 0.654785 3.4375 0.654785 7C0.654785 8.5 1.24854 9.875 2.27979 10.9688C1.84229 12.1875 0.873535 13.25 0.842285 13.25C0.623535 13.4688 0.592285 13.7812 0.686035 14.0625C0.811035 14.3438 1.09229 14.5 1.40479 14.5C3.31104 14.5 4.81104 13.7188 5.74854 13.0625C6.62354 13.3438 7.62354 13.5 8.65479 13.5C13.061 13.5 16.6235 10.5938 16.6235 7C16.6235 3.4375 13.061 0.5 8.65479 0.5ZM8.65479 12C7.81104 12 6.96729 11.875 6.18604 11.625L5.46729 11.4062L4.87354 11.8438C4.43604 12.1562 3.81104 12.5 3.06104 12.75C3.31104 12.375 3.52979 11.9375 3.68604 11.5L4.02979 10.625L3.37354 9.9375C2.81104 9.34375 2.15479 8.34375 2.15479 7C2.15479 4.25 5.06104 2 8.65479 2C12.2173 2 15.1548 4.25 15.1548 7C15.1548 9.78125 12.2173 12 8.65479 12Z" fill="#707070"/>
</svg>
