<?xml version="1.0" encoding="UTF-8"?>
<svg id="Capa_2" data-name="Capa 2" xmlns="http://www.w3.org/2000/svg" xmlns:xlink="http://www.w3.org/1999/xlink" viewBox="0 0 255.46 89.91">
  <defs>
    <style>
      .cls-1 {
        fill: url(#Degradado_sin_nombre_18);
      }
    </style>
    <radialGradient id="Degradado_sin_nombre_18" data-name="Degradado sin nombre 18" cx="43.41" cy="22.58" fx="43.41" fy="22.58" r="22.58" gradientUnits="userSpaceOnUse">
      <stop offset=".07" stop-color="#ff17fd" stop-opacity=".96"/>
      <stop offset=".4" stop-color="#ff66fd" stop-opacity=".63"/>
      <stop offset="1" stop-color="#fff" stop-opacity="0"/>
    </radialGradient>
  </defs>
  <g id="Capa_1-2" data-name="Capa 1">
    <g>
      <g>
        <circle class="cls-1" cx="43.41" cy="22.58" r="22.58"/>
        <polygon points="21.33 89.91 0 45.44 45.13 15.35 79.56 42.67 78.58 43.91 45.05 17.3 2.01 45.99 22.28 88.27 85.63 83.62 82.88 60.14 84.44 59.96 87.39 85.07 86.57 85.13 21.33 89.91"/>
        <g>
          <path d="M51.11,54.4c-.2-.3-.45-.55-.76-.75-.31-.2-.65-.37-1.01-.5s-.72-.26-1.06-.37c-.49-.16-1-.35-1.51-.58s-.97-.5-1.39-.82c-.42-.33-.77-.71-1.03-1.16-.27-.45-.4-.97-.4-1.57s.13-1.14,.4-1.62,.61-.88,1.04-1.2,.92-.58,1.46-.75c.54-.17,1.09-.26,1.65-.26,.61,0,1.2,.1,1.76,.3s1.06,.49,1.5,.85c.44,.37,.79,.81,1.05,1.33s.4,1.1,.41,1.74h-1.83c-.05-.4-.15-.77-.3-1.1s-.34-.61-.59-.85-.53-.42-.87-.55c-.34-.13-.72-.2-1.14-.2-.34,0-.67,.05-1,.14-.32,.1-.61,.24-.86,.43-.26,.19-.46,.43-.61,.71-.15,.28-.23,.61-.23,.98,0,.4,.11,.75,.31,1.02s.45,.51,.76,.71c.3,.19,.63,.35,.99,.48,.36,.13,.69,.24,1,.34,.52,.16,1.04,.35,1.56,.58,.52,.23,1,.52,1.42,.87,.42,.33,.76,.73,1.02,1.2,.26,.48,.39,1.02,.39,1.65s-.14,1.18-.42,1.65c-.28,.47-.64,.86-1.08,1.16-.44,.31-.94,.55-1.5,.71-.56,.16-1.12,.24-1.67,.24-.67,0-1.32-.11-1.97-.34-.64-.22-1.2-.55-1.68-.97-.42-.37-.76-.79-1.01-1.28-.25-.49-.38-1.04-.4-1.64h1.82c.06,.44,.18,.82,.36,1.16s.41,.62,.69,.85c.28,.24,.61,.42,.98,.53,.37,.12,.77,.18,1.21,.18,.35,0,.69-.04,1.03-.13s.64-.22,.9-.41c.26-.18,.48-.41,.64-.69s.25-.61,.25-1c0-.43-.1-.79-.29-1.09Z"/>
          <path d="M64.71,54.51c0,.65-.12,1.27-.35,1.84-.23,.57-.55,1.07-.95,1.49-.4,.43-.89,.77-1.44,1.02-.56,.25-1.17,.37-1.84,.37s-1.3-.12-1.86-.37c-.56-.24-1.04-.58-1.43-1.01-.4-.42-.71-.92-.93-1.5s-.34-1.19-.35-1.84l.02-9.49h1.69l.04,9.49c0,.42,.07,.82,.2,1.2,.12,.38,.31,.72,.54,1.02,.23,.29,.52,.53,.87,.71s.75,.27,1.21,.27,.86-.09,1.2-.26c.35-.18,.64-.42,.88-.72,.23-.29,.41-.63,.53-1.02,.12-.39,.19-.79,.2-1.2l.03-9.49h1.72l.02,9.49Z"/>
          <path d="M67.7,45.02h4.17c.58,0,1.14,.08,1.69,.23s1.04,.37,1.47,.67,.77,.69,1.03,1.15c.26,.47,.38,1.03,.38,1.68,0,.37-.07,.7-.18,1-.11,.3-.26,.57-.46,.81-.2,.24-.42,.45-.66,.62-.24,.17-.53,.32-.87,.47v.03c.35,.08,.69,.23,1.02,.45,.33,.22,.6,.46,.81,.72,.22,.29,.4,.61,.52,.97,.12,.36,.19,.75,.19,1.17,0,.65-.12,1.23-.38,1.73-.26,.5-.6,.92-1.03,1.25-.43,.34-.93,.6-1.49,.78s-1.14,.27-1.74,.28h-4.48v-14.01Zm4.27,5.97c.33,0,.66-.06,.98-.16,.32-.1,.61-.25,.86-.44,.25-.19,.45-.42,.61-.69,.15-.28,.23-.6,.23-.96,0-.39-.08-.72-.23-1-.15-.28-.35-.5-.6-.68-.26-.17-.55-.3-.88-.38-.33-.08-.67-.13-1.01-.13h-2.43v4.46h2.48Zm-2.48,6.52h2.74c.37,0,.72-.07,1.06-.19,.33-.12,.63-.28,.88-.5,.26-.21,.46-.47,.61-.78,.15-.31,.23-.66,.23-1.05,0-.4-.06-.75-.2-1.06-.14-.31-.33-.57-.57-.79-.24-.21-.53-.38-.86-.49s-.68-.18-1.06-.19h-2.84v5.04Z"/>
          <path d="M79.97,53.63v-1.46h7.36v1.46h-7.36Z"/>
          <path d="M98.41,54.4c-.2-.3-.45-.55-.76-.75-.31-.2-.65-.37-1.01-.5s-.72-.26-1.06-.37c-.49-.16-1-.35-1.51-.58s-.97-.5-1.39-.82c-.42-.33-.77-.71-1.03-1.16-.27-.45-.4-.97-.4-1.57s.13-1.14,.4-1.62,.61-.88,1.04-1.2,.92-.58,1.46-.75c.54-.17,1.09-.26,1.65-.26,.61,0,1.2,.1,1.76,.3s1.06,.49,1.5,.85c.44,.37,.79,.81,1.05,1.33s.4,1.1,.41,1.74h-1.83c-.05-.4-.15-.77-.3-1.1s-.34-.61-.59-.85-.53-.42-.87-.55c-.34-.13-.72-.2-1.14-.2-.34,0-.67,.05-1,.14-.32,.1-.61,.24-.86,.43-.26,.19-.46,.43-.61,.71-.15,.28-.23,.61-.23,.98,0,.4,.11,.75,.31,1.02s.45,.51,.76,.71c.3,.19,.63,.35,.99,.48,.36,.13,.69,.24,1,.34,.52,.16,1.04,.35,1.56,.58,.52,.23,1,.52,1.42,.87,.42,.33,.76,.73,1.02,1.2,.26,.48,.39,1.02,.39,1.65s-.14,1.18-.42,1.65c-.28,.47-.64,.86-1.08,1.16-.44,.31-.94,.55-1.5,.71-.56,.16-1.12,.24-1.67,.24-.67,0-1.32-.11-1.97-.34-.64-.22-1.2-.55-1.68-.97-.42-.37-.76-.79-1.01-1.28-.25-.49-.38-1.04-.4-1.64h1.82c.06,.44,.18,.82,.36,1.16s.41,.62,.69,.85c.28,.24,.61,.42,.98,.53,.37,.12,.77,.18,1.21,.18,.35,0,.69-.04,1.03-.13s.64-.22,.9-.41c.26-.18,.48-.41,.64-.69s.25-.61,.25-1c0-.43-.1-.79-.29-1.09Z"/>
          <path d="M105.21,55.4l-1.13,3.63h-1.78l4.52-14.01h1.49l4.45,14.01h-1.77l-1.11-3.63h-4.68Zm4.21-1.55l-1.85-6.08-1.88,6.08h3.72Z"/>
          <path d="M122.13,59.03v-6.48h-5.75v6.48h-1.67v-14.01h1.67v6.02h5.75v-6.02h1.68v14.01h-1.68Z"/>
          <path d="M128.86,55.4l-1.13,3.63h-1.78l4.52-14.01h1.49l4.45,14.01h-1.77l-1.11-3.63h-4.68Zm4.21-1.55l-1.85-6.08-1.88,6.08h3.72Z"/>
          <path d="M140.51,53.32v5.72h-1.77v-14.01h4.11c.65,.01,1.27,.11,1.85,.28,.58,.17,1.08,.43,1.52,.78,.43,.35,.77,.78,1.01,1.3,.25,.52,.37,1.14,.37,1.84,0,.46-.07,.87-.2,1.25-.13,.38-.31,.72-.54,1.03-.23,.31-.51,.58-.83,.82-.32,.24-.67,.44-1.06,.61l2.97,5.99v.12h-1.89l-2.75-5.72h-2.8Zm2.39-1.46c.4,0,.77-.07,1.13-.19,.35-.12,.66-.29,.93-.51,.26-.22,.47-.5,.62-.82,.15-.32,.23-.7,.23-1.12,0-.45-.07-.84-.22-1.18s-.35-.62-.62-.85c-.26-.22-.58-.39-.94-.51-.36-.12-.76-.18-1.19-.18h-2.34v5.37h2.39Z"/>
          <path d="M152.51,55.4l-1.13,3.63h-1.78l4.52-14.01h1.49l4.45,14.01h-1.77l-1.11-3.63h-4.68Zm4.21-1.55l-1.85-6.08-1.88,6.08h3.72Z"/>
          <path d="M169.29,59.03l-5.44-10.47-.03,10.47h-1.8v-14.01h1.81l5.44,10.45,.03-10.45h1.8v14.01h-1.81Z"/>
          <path d="M187.99,55.4l-1.13,3.63h-1.78l4.52-14.01h1.49l4.45,14.01h-1.77l-1.11-3.63h-4.68Zm4.21-1.55l-1.85-6.08-1.88,6.08h3.72Z"/>
          <path d="M199.77,52.84v6.19h-1.8v-14.01h8.6v1.52h-6.8v4.79h5.83v1.51h-5.83Z"/>
          <path d="M211.47,53.32v5.72h-1.77v-14.01h4.11c.65,.01,1.27,.11,1.85,.28,.58,.17,1.08,.43,1.52,.78,.43,.35,.77,.78,1.01,1.3,.25,.52,.37,1.14,.37,1.84,0,.46-.07,.87-.2,1.25-.13,.38-.31,.72-.54,1.03-.23,.31-.51,.58-.83,.82-.32,.24-.67,.44-1.06,.61l2.97,5.99v.12h-1.89l-2.75-5.72h-2.8Zm2.39-1.46c.4,0,.77-.07,1.13-.19,.35-.12,.66-.29,.93-.51,.26-.22,.47-.5,.62-.82,.15-.32,.23-.7,.23-1.12,0-.45-.07-.84-.22-1.18s-.35-.62-.62-.85c-.26-.22-.58-.39-.94-.51-.36-.12-.76-.18-1.19-.18h-2.34v5.37h2.39Z"/>
          <path d="M229.92,45.02v1.55h-3.36v10.92h3.36v1.54h-8.47v-1.54h3.28v-10.92h-3.28v-1.55h8.47Z"/>
          <path d="M241.86,56.6c-.25,.54-.57,1.01-.97,1.39-.4,.39-.88,.69-1.43,.91-.55,.21-1.16,.32-1.83,.32-.58,0-1.1-.08-1.57-.25-.47-.16-.89-.39-1.26-.68-.37-.29-.69-.63-.96-1.02-.27-.39-.49-.82-.66-1.28-.18-.46-.31-.95-.4-1.45-.09-.51-.13-1.02-.14-1.54v-1.95c0-.52,.05-1.03,.14-1.54,.09-.51,.22-.99,.4-1.45,.17-.46,.39-.89,.66-1.28s.58-.74,.96-1.03c.37-.29,.78-.51,1.25-.68,.47-.16,1-.25,1.58-.25,.7,0,1.33,.11,1.88,.32s1.03,.52,1.42,.91c.4,.4,.72,.87,.96,1.42,.24,.55,.4,1.16,.48,1.83h-1.78c-.06-.42-.16-.82-.3-1.18-.14-.37-.33-.69-.57-.96-.24-.28-.53-.49-.87-.65-.34-.16-.75-.24-1.22-.24-.42,0-.8,.07-1.12,.21-.32,.14-.6,.33-.83,.56-.24,.24-.43,.51-.59,.83s-.28,.65-.38,1c-.1,.35-.17,.71-.21,1.08-.04,.37-.06,.73-.06,1.07v1.97c0,.35,.02,.7,.06,1.07,.04,.37,.11,.73,.21,1.08,.1,.36,.22,.7,.38,1.01,.15,.31,.35,.59,.59,.83,.24,.24,.52,.43,.84,.57,.32,.14,.7,.21,1.12,.21,.47,0,.87-.07,1.22-.22,.34-.15,.63-.36,.87-.62,.24-.26,.43-.58,.57-.94,.14-.36,.24-.75,.3-1.18h1.78c-.08,.65-.25,1.24-.5,1.79Z"/>
          <path d="M247.12,55.4l-1.13,3.63h-1.78l4.52-14.01h1.49l4.45,14.01h-1.77l-1.11-3.63h-4.68Zm4.21-1.55l-1.85-6.08-1.88,6.08h3.72Z"/>
        </g>
      </g>
      <g>
        <path d="M203.14,63.74v5.35h6.18v-5.35h1.67v12.79h-1.67v-5.99h-6.18v5.99h-1.65v-12.79h1.65Z"/>
        <path d="M215.51,63.74v7.57c0,2.86,1.27,4.08,2.98,4.08,1.9,0,3.11-1.25,3.11-4.08v-7.57h1.67v7.46c0,3.93-2.07,5.54-4.84,5.54-2.62,0-4.59-1.5-4.59-5.46v-7.53h1.67Z"/>
        <path d="M226.14,63.91c.72-.15,1.86-.27,3.02-.27,1.65,0,2.71,.28,3.51,.93,.66,.49,1.06,1.25,1.06,2.26,0,1.23-.82,2.32-2.16,2.81v.04c1.21,.3,2.64,1.31,2.64,3.21,0,1.1-.44,1.94-1.08,2.56-.89,.82-2.33,1.2-4.42,1.2-1.14,0-2.01-.08-2.56-.15v-12.58Zm1.65,5.24h1.5c1.75,0,2.77-.91,2.77-2.14,0-1.5-1.14-2.09-2.81-2.09-.76,0-1.19,.06-1.46,.11v4.12Zm0,6.13c.32,.06,.8,.08,1.38,.08,1.71,0,3.28-.63,3.28-2.49,0-1.75-1.5-2.47-3.3-2.47h-1.37v4.88Z"/>
        <path d="M239.85,71.53c0-.68,.47-1.2,1.14-1.2s1.1,.49,1.12,1.2c0,.68-.46,1.2-1.14,1.2s-1.14-.51-1.12-1.2Z"/>
        <path d="M248.22,74.61c.47,.3,1.57,.78,2.73,.78,2.14,0,2.81-1.37,2.79-2.39-.02-1.73-1.57-2.47-3.19-2.47h-.93v-1.25h.93c1.21,0,2.75-.63,2.75-2.09,0-.99-.63-1.86-2.16-1.86-.99,0-1.94,.44-2.47,.82l-.44-1.21c.64-.47,1.9-.95,3.23-.95,2.43,0,3.53,1.44,3.53,2.94,0,1.27-.76,2.35-2.28,2.9v.04c1.52,.3,2.75,1.44,2.75,3.17,0,1.97-1.54,3.7-4.5,3.7-1.38,0-2.6-.44-3.21-.83l.46-1.29Z"/>
      </g>
    </g>
  </g>
</svg>