<?xml version="1.0" encoding="UTF-8"?>
<svg id="Capa_2" data-name="Capa 2" xmlns="http://www.w3.org/2000/svg" xmlns:xlink="http://www.w3.org/1999/xlink" viewBox="0 0 245.02 59.75">
  <defs>
    <style>
      .cls-1 {
        fill: url(#Degradado_sin_nombre_17);
      }
    </style>
    <radialGradient id="Degradado_sin_nombre_17" data-name="Degradado sin nombre 17" cx="21.02" cy="22.34" fx="21.02" fy="22.34" r="21.02" gradientUnits="userSpaceOnUse">
      <stop offset="0" stop-color="#4aeeff"/>
      <stop offset=".3" stop-color="#50efff" stop-opacity=".97"/>
      <stop offset=".53" stop-color="#8bf4ff" stop-opacity=".64"/>
      <stop offset="1" stop-color="#fff" stop-opacity="0"/>
    </radialGradient>
  </defs>
  <g id="Capa_1-2" data-name="Capa 1">
    <g>
      <g>
        <circle class="cls-1" cx="21.02" cy="22.34" r="21.02"/>
        <g>
          <path d="M72.63,31.52v4.96h6.82v1.51h-8.6v-14.01h8.52v1.52h-6.74v4.5h5.85v1.51h-5.85Z"/>
          <path d="M91.42,33.48c0,.65-.12,1.27-.35,1.84-.23,.57-.55,1.07-.95,1.49-.4,.43-.88,.77-1.44,1.02s-1.17,.37-1.84,.37-1.3-.12-1.86-.37c-.56-.24-1.04-.58-1.43-1.01-.4-.42-.71-.92-.93-1.5s-.34-1.19-.35-1.84l.02-9.49h1.69l.04,9.49c0,.42,.07,.82,.2,1.2,.12,.38,.31,.72,.54,1.02,.23,.29,.52,.53,.87,.71s.75,.27,1.21,.27,.86-.09,1.2-.26c.35-.18,.64-.42,.88-.72,.23-.29,.41-.63,.53-1.02,.12-.39,.19-.79,.2-1.2l.03-9.49h1.72l.02,9.49Z"/>
          <path d="M96.27,32.28v5.72h-1.77v-14.01h4.11c.65,.01,1.27,.11,1.85,.28,.58,.17,1.08,.43,1.52,.78,.43,.35,.77,.78,1.01,1.3,.25,.52,.37,1.14,.37,1.84,0,.46-.07,.87-.2,1.25-.13,.38-.31,.72-.54,1.03-.23,.31-.51,.58-.83,.82s-.67,.44-1.06,.61l2.97,5.99v.12h-1.88l-2.75-5.72h-2.8Zm2.39-1.46c.4,0,.77-.07,1.12-.19,.35-.12,.66-.29,.93-.51,.26-.22,.47-.5,.62-.82,.15-.32,.23-.7,.23-1.12,0-.45-.07-.84-.22-1.18-.15-.34-.35-.62-.62-.85-.26-.22-.58-.39-.94-.51-.36-.12-.76-.18-1.19-.18h-2.34v5.37h2.39Z"/>
          <path d="M115.24,33.32c-.08,.51-.2,1-.37,1.48-.17,.47-.38,.92-.64,1.33-.26,.41-.57,.77-.93,1.08s-.77,.55-1.24,.73c-.46,.18-.99,.26-1.56,.26s-1.1-.09-1.56-.26c-.46-.18-.88-.42-1.24-.73s-.67-.67-.93-1.08c-.26-.41-.48-.86-.64-1.33-.17-.47-.3-.97-.38-1.47-.08-.51-.13-1.01-.13-1.51v-1.6c0-.5,.05-1.01,.13-1.52s.21-1,.38-1.48c.17-.47,.38-.92,.64-1.33,.26-.41,.57-.78,.93-1.09,.36-.31,.77-.55,1.24-.73,.46-.18,.99-.26,1.56-.26s1.1,.09,1.57,.26c.47,.18,.88,.42,1.24,.73,.36,.31,.67,.67,.93,1.08s.48,.86,.65,1.33c.17,.47,.29,.97,.37,1.48s.12,1.02,.13,1.52v1.6c0,.5-.05,1.01-.13,1.52Zm-1.7-4.18c-.04-.36-.1-.72-.19-1.08-.1-.35-.22-.69-.38-1.01s-.35-.61-.58-.86c-.23-.24-.5-.44-.82-.58-.31-.14-.68-.22-1.1-.22s-.77,.07-1.09,.22-.59,.34-.82,.59c-.23,.25-.42,.54-.58,.86-.15,.32-.28,.66-.37,1.01-.1,.36-.17,.72-.21,1.08s-.07,.71-.07,1.03v1.62c0,.33,.03,.67,.07,1.04,.04,.37,.11,.72,.21,1.08,.1,.36,.22,.7,.38,1.03,.15,.33,.35,.61,.58,.86,.23,.25,.5,.45,.82,.6,.31,.15,.68,.22,1.1,.22s.78-.07,1.1-.22c.32-.15,.59-.35,.82-.6,.22-.24,.41-.53,.56-.85,.15-.32,.27-.67,.37-1.02,.09-.35,.15-.71,.19-1.08,.04-.37,.06-.71,.06-1.05v-1.62c0-.33-.03-.68-.07-1.04Z"/>
          <path d="M120.02,38h-1.78v-14.01h4.54c.63,.01,1.22,.11,1.79,.3,.56,.19,1.05,.46,1.48,.81,.42,.35,.76,.79,1.01,1.31,.25,.52,.37,1.12,.37,1.79s-.12,1.27-.37,1.79c-.25,.52-.58,.95-1.01,1.3-.42,.35-.92,.62-1.48,.81-.56,.19-1.16,.28-1.79,.29h-2.76v5.62Zm2.76-7.08c.41,0,.79-.07,1.13-.2s.65-.3,.9-.53c.26-.23,.46-.51,.6-.84s.22-.71,.22-1.13-.07-.8-.22-1.14c-.14-.34-.34-.63-.59-.87-.26-.24-.56-.42-.91-.55-.35-.13-.73-.2-1.14-.2h-2.76v5.47h2.76Z"/>
          <path d="M131.92,34.37l-1.12,3.63h-1.78l4.52-14.01h1.49l4.45,14.01h-1.77l-1.11-3.63h-4.68Zm4.21-1.55l-1.85-6.08-1.88,6.08h3.72Z"/>
          <path d="M153.38,23.99h3.24c.54,0,1.06,.06,1.54,.17s.93,.25,1.34,.45c.57,.26,1.08,.61,1.52,1.03,.44,.43,.79,.92,1.05,1.48,.24,.47,.42,.99,.54,1.56s.19,1.17,.2,1.81v1.03c0,.62-.06,1.2-.18,1.75s-.29,1.06-.52,1.52c-.23,.48-.52,.92-.88,1.31s-.75,.72-1.18,1c-.46,.29-.98,.51-1.56,.66-.58,.15-1.21,.23-1.88,.24h-3.24v-14.01Zm1.81,12.56h1.43c.51,0,.98-.07,1.4-.19s.79-.29,1.12-.52c.35-.23,.65-.51,.9-.85,.25-.34,.45-.71,.6-1.13,.13-.34,.22-.71,.29-1.1,.06-.39,.1-.81,.11-1.24v-1.05c0-.44-.04-.85-.11-1.26-.07-.4-.17-.77-.3-1.12-.17-.45-.41-.85-.7-1.22-.29-.36-.65-.66-1.07-.88-.3-.17-.64-.3-1.01-.39-.37-.09-.78-.14-1.22-.15h-1.43v11.09Z"/>
          <path d="M167.24,31.52v4.96h6.82v1.51h-8.6v-14.01h8.52v1.52h-6.74v4.5h5.85v1.51h-5.85Z"/>
          <path d="M186.07,36.49v1.51h-8.63v-14.01h1.78v12.5h6.85Z"/>
          <path d="M202.72,31.52v4.96h6.82v1.51h-8.6v-14.01h8.52v1.52h-6.74v4.5h5.85v1.51h-5.85Z"/>
          <path d="M219.73,33.37c-.2-.3-.45-.55-.76-.75-.31-.2-.65-.37-1.02-.5s-.72-.26-1.06-.37c-.49-.16-1-.35-1.51-.58s-.97-.5-1.39-.82c-.42-.33-.77-.71-1.04-1.16-.27-.45-.4-.97-.4-1.57s.13-1.14,.4-1.62c.27-.47,.62-.88,1.04-1.2s.92-.58,1.46-.75,1.09-.26,1.64-.26c.61,0,1.2,.1,1.76,.3s1.06,.49,1.5,.85c.44,.37,.79,.81,1.05,1.33,.26,.52,.4,1.1,.41,1.74h-1.83c-.05-.4-.15-.77-.3-1.1-.15-.33-.34-.61-.59-.85s-.53-.42-.87-.55c-.34-.13-.72-.2-1.14-.2-.34,0-.67,.05-1,.14-.32,.1-.61,.24-.86,.43-.26,.19-.46,.43-.61,.71-.15,.28-.23,.61-.23,.98,0,.4,.11,.75,.31,1.02,.2,.28,.45,.51,.76,.71,.3,.19,.63,.35,.99,.48,.36,.13,.69,.24,1,.34,.52,.16,1.04,.35,1.56,.58s.99,.52,1.42,.87c.42,.33,.76,.73,1.02,1.2,.26,.48,.39,1.02,.39,1.65s-.14,1.18-.42,1.65c-.28,.47-.64,.86-1.08,1.16-.44,.31-.94,.55-1.5,.71s-1.12,.24-1.67,.24c-.67,0-1.32-.11-1.97-.34s-1.21-.55-1.68-.97c-.42-.37-.76-.79-1-1.28-.25-.49-.38-1.04-.4-1.64h1.82c.06,.44,.18,.82,.36,1.16,.18,.34,.41,.62,.69,.85,.28,.24,.61,.42,.98,.53,.37,.12,.77,.18,1.21,.18,.35,0,.69-.04,1.02-.13,.34-.09,.64-.22,.9-.41,.26-.18,.48-.41,.64-.69s.25-.61,.25-1c0-.43-.1-.79-.29-1.09Z"/>
          <path d="M229.63,25.51v12.49h-1.73v-12.49h-4.33v-1.52h10.39v1.52h-4.33Z"/>
          <path d="M238.2,31.52v4.96h6.82v1.51h-8.6v-14.01h8.52v1.52h-6.74v4.5h5.85v1.51h-5.85Z"/>
        </g>
        <polygon points="68.45 59.75 17.35 20.5 58.59 0 96.26 9.88 100.44 19.67 99 20.29 95.11 11.2 58.76 1.67 20.31 20.78 68.63 57.9 103.24 40.49 103.95 41.89 68.45 59.75"/>
      </g>
      <g>
        <path d="M195.66,43.08v5.03h5.81v-5.03h1.57v12.01h-1.57v-5.63h-5.81v5.63h-1.55v-12.01h1.55Z"/>
        <path d="M207.28,43.08v7.11c0,2.69,1.19,3.83,2.8,3.83,1.78,0,2.92-1.18,2.92-3.83v-7.11h1.57v7c0,3.69-1.94,5.2-4.54,5.2-2.46,0-4.31-1.41-4.31-5.13v-7.07h1.57Z"/>
        <path d="M217.27,43.24c.68-.14,1.75-.25,2.83-.25,1.55,0,2.55,.27,3.3,.87,.62,.46,1,1.18,1,2.12,0,1.16-.77,2.17-2.03,2.64v.03c1.14,.29,2.48,1.23,2.48,3.01,0,1.03-.41,1.82-1.02,2.41-.84,.77-2.19,1.12-4.15,1.12-1.07,0-1.89-.07-2.41-.14v-11.81Zm1.55,4.92h1.41c1.64,0,2.6-.86,2.6-2.01,0-1.41-1.07-1.96-2.64-1.96-.71,0-1.12,.05-1.37,.11v3.87Zm0,5.75c.3,.05,.75,.07,1.3,.07,1.6,0,3.08-.59,3.08-2.33,0-1.64-1.41-2.32-3.1-2.32h-1.28v4.58Z"/>
        <path d="M230.14,50.41c0-.64,.45-1.12,1.07-1.12s1.03,.46,1.05,1.12c0,.64-.43,1.12-1.07,1.12s-1.07-.48-1.05-1.12Z"/>
        <path d="M237.63,55.09v-.96l1.23-1.19c2.96-2.81,4.29-4.31,4.31-6.06,0-1.18-.57-2.26-2.3-2.26-1.05,0-1.93,.53-2.46,.98l-.5-1.1c.8-.68,1.94-1.18,3.28-1.18,2.49,0,3.55,1.71,3.55,3.37,0,2.14-1.55,3.87-3.99,6.22l-.93,.86v.03h5.2v1.3h-7.39Z"/>
      </g>
    </g>
  </g>
</svg>