<?xml version="1.0" encoding="UTF-8"?>
<svg xmlns="http://www.w3.org/2000/svg" xmlns:xlink="http://www.w3.org/1999/xlink" viewBox="0 0 190.3 108.75">
  <defs>
    <style>
      .cls-1 {
        isolation: isolate;
      }

      .cls-2 {
        fill: url(#Degradado_sin_nombre_16);
        mix-blend-mode: multiply;
      }
    </style>
    <radialGradient id="Degradado_sin_nombre_16" data-name="Degradado sin nombre 16" cx="46.23" cy="24.93" fx="46.23" fy="24.93" r="24.93" gradientUnits="userSpaceOnUse">
      <stop offset=".19" stop-color="#ff3546" stop-opacity=".96"/>
      <stop offset=".48" stop-color="#ff7a85" stop-opacity=".63"/>
      <stop offset="1" stop-color="#fff" stop-opacity="0"/>
    </radialGradient>
  </defs>
  <g class="cls-1">
    <g id="Capa_2" data-name="Capa 2">
      <g id="Capa_1-2" data-name="Capa 1">
        <g>
          <g>
            <circle class="cls-2" cx="46.23" cy="24.93" r="24.93"/>
            <polygon points="58.41 108.75 13.93 91.26 0 58.66 .46 58.29 46.84 20.34 92.25 54.26 87.99 61.12 86.66 60.29 90.15 54.66 46.88 22.33 1.91 59.13 15.11 90.04 57.78 106.82 73.69 82.19 75.01 83.05 58.41 108.75"/>
            <g>
              <path d="M47.69,78.03v1.51h-8.63v-14.01h1.78v12.5h6.85Z"/>
              <path d="M52.66,75.91l-1.13,3.63h-1.78l4.52-14.01h1.49l4.45,14.01h-1.77l-1.11-3.63h-4.68Zm4.21-1.55l-1.85-6.08-1.88,6.08h3.72Z"/>
              <path d="M67.6,67.05v12.49h-1.73v-12.49h-4.33v-1.52h10.39v1.52h-4.33Z"/>
              <path d="M82.77,65.53v1.55h-3.36v10.92h3.36v1.54h-8.47v-1.54h3.28v-10.92h-3.28v-1.55h8.47Z"/>
              <path d="M93.1,79.54l-5.44-10.47-.03,10.47h-1.8v-14.01h1.81l5.44,10.45,.03-10.45h1.8v14.01h-1.81Z"/>
              <path d="M111.79,75.91l-1.13,3.63h-1.78l4.52-14.01h1.49l4.45,14.01h-1.77l-1.11-3.63h-4.68Zm4.21-1.55l-1.85-6.08-1.88,6.08h3.72Z"/>
              <path d="M125.84,72.54l2.46-7h2.21v14.01h-1.73v-5.59l.14-5.85-2.59,7.54h-1.02l-2.38-7.34,.14,5.65v5.59h-1.73v-14.01h2.2l2.28,7Z"/>
              <path d="M135.29,73.06v4.96h6.82v1.51h-8.6v-14.01h8.52v1.52h-6.74v4.5h5.85v1.51h-5.85Z"/>
              <path d="M147.1,73.82v5.72h-1.77v-14.01h4.11c.65,.01,1.27,.11,1.85,.28,.58,.17,1.08,.43,1.52,.78,.43,.35,.77,.78,1.01,1.3,.25,.52,.37,1.14,.37,1.84,0,.46-.07,.87-.2,1.25-.13,.38-.31,.72-.54,1.03-.23,.31-.51,.58-.83,.82-.32,.24-.67,.44-1.06,.61l2.97,5.99v.12h-1.89l-2.75-5.72h-2.8Zm2.39-1.46c.4,0,.77-.07,1.13-.19,.35-.12,.66-.29,.93-.51,.26-.22,.47-.5,.62-.82,.15-.32,.23-.7,.23-1.12,0-.45-.07-.84-.22-1.18s-.35-.62-.62-.85c-.26-.22-.58-.39-.94-.51-.36-.12-.76-.18-1.19-.18h-2.34v5.37h2.39Z"/>
              <path d="M165.55,65.53v1.55h-3.36v10.92h3.36v1.54h-8.47v-1.54h3.28v-10.92h-3.28v-1.55h8.47Z"/>
              <path d="M177.48,77.11c-.25,.54-.57,1.01-.97,1.39-.4,.39-.88,.69-1.43,.91-.55,.21-1.16,.32-1.83,.32-.58,0-1.1-.08-1.57-.25-.47-.16-.89-.39-1.26-.68-.37-.29-.69-.63-.96-1.02-.27-.39-.49-.82-.66-1.28-.18-.46-.31-.95-.4-1.45-.09-.51-.13-1.02-.14-1.54v-1.95c0-.52,.05-1.03,.14-1.54,.09-.51,.22-.99,.4-1.45,.17-.46,.39-.89,.66-1.28s.58-.74,.96-1.03c.37-.29,.78-.51,1.25-.68,.47-.16,1-.25,1.58-.25,.7,0,1.33,.11,1.88,.32s1.03,.52,1.42,.91c.4,.4,.72,.87,.96,1.42,.24,.55,.4,1.16,.48,1.83h-1.78c-.06-.42-.16-.82-.3-1.18-.14-.37-.33-.69-.57-.96-.24-.28-.53-.49-.87-.65-.34-.16-.75-.24-1.22-.24-.42,0-.8,.07-1.12,.21-.32,.14-.6,.33-.83,.56-.24,.24-.43,.51-.59,.83s-.28,.65-.38,1c-.1,.35-.17,.71-.21,1.08-.04,.37-.06,.73-.06,1.07v1.97c0,.35,.02,.7,.06,1.07,.04,.37,.11,.73,.21,1.08,.1,.36,.22,.7,.38,1.01,.15,.31,.35,.59,.59,.83,.24,.24,.52,.43,.84,.57,.32,.14,.7,.21,1.12,.21,.47,0,.87-.07,1.22-.22,.34-.15,.63-.36,.87-.62,.24-.26,.43-.58,.57-.94,.14-.36,.24-.75,.3-1.18h1.78c-.08,.65-.25,1.24-.5,1.79Z"/>
              <path d="M182.75,75.91l-1.13,3.63h-1.78l4.52-14.01h1.49l4.45,14.01h-1.77l-1.11-3.63h-4.68Zm4.21-1.55l-1.85-6.08-1.88,6.08h3.72Z"/>
            </g>
          </g>
          <g>
            <path d="M146.32,84.54v5.07h5.86v-5.07h1.58v12.11h-1.58v-5.68h-5.86v5.68h-1.56v-12.11h1.56Z"/>
            <path d="M158.04,84.54v7.17c0,2.71,1.2,3.86,2.82,3.86,1.8,0,2.95-1.19,2.95-3.86v-7.17h1.58v7.06c0,3.72-1.96,5.25-4.58,5.25-2.48,0-4.35-1.42-4.35-5.18v-7.13h1.58Z"/>
            <path d="M168.11,84.7c.68-.14,1.76-.25,2.86-.25,1.56,0,2.57,.27,3.32,.88,.63,.47,1.01,1.19,1.01,2.14,0,1.17-.77,2.19-2.05,2.66v.04c1.15,.29,2.5,1.24,2.5,3.04,0,1.04-.41,1.83-1.02,2.43-.84,.77-2.21,1.13-4.19,1.13-1.08,0-1.9-.07-2.43-.14v-11.91Zm1.56,4.96h1.42c1.65,0,2.62-.86,2.62-2.03,0-1.42-1.08-1.98-2.66-1.98-.72,0-1.13,.05-1.38,.11v3.9Zm0,5.8c.31,.05,.75,.07,1.31,.07,1.62,0,3.11-.59,3.11-2.35,0-1.65-1.42-2.34-3.13-2.34h-1.29v4.62Z"/>
            <path d="M181.09,91.93c0-.65,.45-1.13,1.08-1.13s1.04,.47,1.06,1.13c0,.65-.43,1.13-1.08,1.13s-1.08-.49-1.06-1.13Z"/>
            <path d="M188.26,86.45h-.04l-2.03,1.1-.31-1.2,2.55-1.37h1.35v11.68h-1.53v-10.21Z"/>
          </g>
        </g>
      </g>
    </g>
  </g>
</svg>