<?xml version="1.0" encoding="UTF-8"?>
<svg id="Capa_2" data-name="Capa 2" xmlns="http://www.w3.org/2000/svg" xmlns:xlink="http://www.w3.org/1999/xlink" viewBox="0 0 94.9 61.95">
  <defs>
    <style>
      .cls-1 {
        fill: url(#Degradado_sin_nombre_22);
      }
    </style>
    <radialGradient id="Degradado_sin_nombre_22" data-name="Degradado sin nombre 22" cx="18.25" cy="18.25" fx="18.25" fy="18.25" r="18.25" gradientUnits="userSpaceOnUse">
      <stop offset=".11" stop-color="#faff2e"/>
      <stop offset="1" stop-color="#fff" stop-opacity="0"/>
    </radialGradient>
  </defs>
  <g id="Capa_1-2" data-name="Capa 1">
    <g>
      <g>
        <circle class="cls-1" cx="18.25" cy="18.25" r="18.25"/>
        <polygon points="40.72 61.95 20.33 50.34 14.72 14.77 40.01 17.3 51.85 29.36 50.73 30.47 39.28 18.81 16.59 16.54 21.77 49.35 40.37 59.94 49.63 49.1 50.83 50.12 40.72 61.95"/>
        <g>
          <path d="M46.5,33.25v1.55h-3.36v10.92h3.36v1.54h-8.47v-1.54h3.28v-10.92h-3.28v-1.55h8.47Z"/>
          <path d="M56.82,47.26l-5.44-10.47-.03,10.47h-1.8v-14.01h1.81l5.44,10.45,.03-10.45h1.8v14.01h-1.81Z"/>
          <path d="M61.5,33.25h3.24c.54,0,1.06,.06,1.54,.17s.93,.25,1.34,.45c.57,.26,1.08,.61,1.52,1.03,.44,.43,.79,.92,1.05,1.48,.24,.47,.42,.99,.54,1.56s.19,1.17,.2,1.81v1.03c0,.62-.06,1.2-.18,1.75-.12,.55-.29,1.06-.51,1.52-.23,.48-.52,.92-.88,1.31s-.75,.72-1.18,1c-.46,.29-.98,.51-1.56,.66-.58,.15-1.21,.23-1.88,.24h-3.24v-14.01Zm1.81,12.56h1.43c.51,0,.98-.07,1.4-.19s.79-.29,1.12-.52c.35-.23,.65-.51,.9-.85,.25-.34,.45-.71,.6-1.13,.13-.34,.22-.71,.29-1.1,.06-.39,.1-.81,.11-1.24v-1.05c0-.44-.04-.85-.11-1.26-.07-.4-.17-.77-.3-1.12-.17-.45-.41-.85-.7-1.22s-.65-.66-1.07-.88c-.3-.17-.64-.3-1.01-.39s-.78-.14-1.22-.15h-1.43v11.09Z"/>
          <path d="M81.97,33.25v1.55h-3.36v10.92h3.36v1.54h-8.47v-1.54h3.28v-10.92h-3.28v-1.55h8.47Z"/>
          <path d="M87.34,43.63l-1.13,3.63h-1.78l4.52-14.01h1.49l4.45,14.01h-1.77l-1.11-3.63h-4.68Zm4.21-1.55l-1.85-6.08-1.88,6.08h3.72Z"/>
        </g>
      </g>
      <g>
        <path d="M61.83,50.65v3.33h3.85v-3.33h1.04v7.96h-1.04v-3.73h-3.85v3.73h-1.03v-7.96h1.03Z"/>
        <path d="M69.53,50.65v4.71c0,1.78,.79,2.54,1.85,2.54,1.18,0,1.94-.78,1.94-2.54v-4.71h1.04v4.64c0,2.44-1.29,3.45-3.01,3.45-1.63,0-2.86-.93-2.86-3.4v-4.69h1.04Z"/>
        <path d="M76.15,50.76c.45-.09,1.16-.17,1.88-.17,1.03,0,1.69,.18,2.18,.58,.41,.31,.66,.78,.66,1.4,0,.77-.51,1.44-1.35,1.75v.02c.76,.19,1.64,.82,1.64,2,0,.68-.27,1.2-.67,1.59-.56,.51-1.45,.74-2.75,.74-.71,0-1.25-.05-1.59-.1v-7.83Zm1.03,3.26h.93c1.09,0,1.72-.57,1.72-1.33,0-.93-.71-1.3-1.75-1.3-.47,0-.74,.04-.91,.07v2.56Zm0,3.81c.2,.04,.5,.05,.86,.05,1.06,0,2.04-.39,2.04-1.55,0-1.09-.93-1.53-2.05-1.53h-.85v3.03Z"/>
        <path d="M84.67,55.5c0-.42,.29-.74,.71-.74s.69,.31,.7,.74c0,.42-.28,.74-.71,.74s-.71-.32-.7-.74Z"/>
        <path d="M92.84,58.61v-2.09h-3.56v-.68l3.42-4.9h1.12v4.77h1.07v.81h-1.07v2.09h-.98Zm0-2.9v-2.56c0-.4,.01-.8,.04-1.2h-.04c-.23,.45-.42,.78-.64,1.13l-1.88,2.61v.02h2.51Z"/>
      </g>
    </g>
  </g>
</svg>