<?xml version="1.0" encoding="UTF-8"?>
<svg xmlns="http://www.w3.org/2000/svg" xmlns:xlink="http://www.w3.org/1999/xlink" viewBox="0 0 180.16 84.55">
  <defs>
    <style>
      .cls-1 {
        isolation: isolate;
      }

      .cls-2 {
        fill: url(#Degradado_sin_nombre_26);
        mix-blend-mode: multiply;
      }
    </style>
    <radialGradient id="Degradado_sin_nombre_26" data-name="Degradado sin nombre 26" cx="28.16" cy="23.74" fx="28.16" fy="23.74" r="23.74" gradientUnits="userSpaceOnUse">
      <stop offset=".2" stop-color="#45ff4d"/>
      <stop offset="1" stop-color="#fff" stop-opacity="0"/>
    </radialGradient>
  </defs>
  <g class="cls-1">
    <g id="Capa_2" data-name="Capa 2">
      <g id="Capa_1-2" data-name="Capa 1">
        <g>
          <g>
            <circle class="cls-2" cx="28.16" cy="23.74" r="23.74"/>
            <g>
              <path d="M23.89,59.48c-.2-.3-.45-.55-.76-.75-.31-.2-.65-.37-1.01-.5s-.72-.26-1.06-.37c-.49-.16-1-.35-1.51-.58s-.97-.5-1.39-.82c-.42-.33-.77-.71-1.03-1.16-.27-.45-.4-.97-.4-1.57s.13-1.14,.4-1.62,.61-.88,1.04-1.2,.92-.58,1.46-.75c.54-.17,1.09-.26,1.65-.26,.61,0,1.2,.1,1.76,.3s1.06,.49,1.5,.85c.44,.37,.79,.81,1.05,1.33s.4,1.1,.41,1.74h-1.83c-.05-.4-.15-.77-.3-1.1s-.34-.61-.59-.85-.53-.42-.87-.55c-.34-.13-.72-.2-1.14-.2-.34,0-.67,.05-1,.14-.32,.1-.61,.24-.86,.43-.26,.19-.46,.43-.61,.71-.15,.28-.23,.61-.23,.98,0,.4,.11,.75,.31,1.02s.45,.51,.76,.71c.3,.19,.63,.35,.99,.48,.36,.13,.69,.24,1,.34,.52,.16,1.04,.35,1.56,.58,.52,.23,1,.52,1.42,.87,.42,.33,.76,.73,1.02,1.2,.26,.48,.39,1.02,.39,1.65s-.14,1.18-.42,1.65c-.28,.47-.64,.86-1.08,1.16-.44,.31-.94,.55-1.5,.71-.56,.16-1.12,.24-1.67,.24-.67,0-1.32-.11-1.97-.34-.64-.22-1.2-.55-1.68-.97-.42-.37-.76-.79-1.01-1.28-.25-.49-.38-1.04-.4-1.64h1.82c.06,.44,.18,.82,.36,1.16s.41,.62,.69,.85c.28,.24,.61,.42,.98,.53,.37,.12,.77,.18,1.21,.18,.35,0,.69-.04,1.03-.13s.64-.22,.9-.41c.26-.18,.48-.41,.64-.69s.25-.61,.25-1c0-.43-.1-.79-.29-1.09Z"/>
              <path d="M37.65,59.43c-.08,.51-.2,1-.37,1.48s-.38,.92-.64,1.33c-.26,.41-.57,.77-.93,1.08s-.77,.55-1.24,.73c-.47,.18-.99,.26-1.56,.26s-1.1-.09-1.56-.26c-.46-.18-.88-.42-1.24-.73s-.67-.67-.93-1.08c-.26-.41-.48-.86-.64-1.33-.17-.47-.3-.97-.38-1.47-.08-.51-.13-1.01-.13-1.51v-1.6c0-.5,.05-1.01,.13-1.52s.21-1,.38-1.48c.17-.47,.38-.92,.64-1.33,.26-.41,.57-.78,.93-1.09,.36-.31,.77-.55,1.24-.73,.46-.18,.99-.26,1.56-.26s1.1,.09,1.57,.26c.47,.18,.88,.42,1.24,.73,.36,.31,.67,.67,.93,1.08s.48,.86,.65,1.33c.17,.47,.29,.97,.37,1.48s.12,1.02,.13,1.52v1.6c0,.5-.05,1.01-.13,1.52Zm-1.7-4.18c-.04-.36-.1-.72-.19-1.08-.1-.35-.22-.69-.38-1.01s-.35-.61-.58-.86c-.23-.24-.5-.44-.82-.58s-.68-.22-1.1-.22-.77,.07-1.09,.22c-.31,.15-.59,.34-.82,.59-.23,.25-.42,.54-.58,.86-.15,.32-.28,.66-.37,1.01-.1,.36-.17,.72-.21,1.08-.04,.36-.07,.71-.07,1.03v1.62c0,.33,.03,.67,.07,1.04,.04,.37,.11,.72,.21,1.08,.1,.36,.22,.7,.38,1.03,.15,.33,.35,.61,.58,.86,.23,.25,.5,.45,.82,.6,.31,.15,.68,.22,1.1,.22s.78-.07,1.1-.22c.32-.15,.59-.35,.82-.6,.22-.24,.41-.53,.56-.85,.15-.32,.27-.67,.37-1.02,.09-.35,.15-.71,.19-1.08,.04-.37,.06-.71,.06-1.05v-1.62c0-.33-.03-.68-.07-1.04Z"/>
              <path d="M49.31,59.59c0,.65-.12,1.27-.35,1.84-.23,.57-.55,1.07-.95,1.49-.4,.43-.88,.77-1.44,1.02-.56,.25-1.17,.37-1.84,.37s-1.3-.12-1.86-.37c-.56-.24-1.04-.58-1.43-1.01-.4-.42-.71-.92-.93-1.5-.22-.57-.34-1.19-.35-1.84l.02-9.49h1.69l.04,9.49c0,.42,.07,.82,.2,1.2,.12,.38,.31,.72,.54,1.02,.23,.29,.52,.53,.87,.71s.75,.27,1.21,.27,.86-.09,1.2-.26c.35-.18,.64-.42,.88-.72,.23-.29,.41-.63,.53-1.02,.12-.39,.19-.79,.2-1.2l.03-9.49h1.72l.02,9.49Z"/>
              <path d="M57.44,51.62v12.49h-1.73v-12.49h-4.33v-1.52h10.39v1.52h-4.33Z"/>
              <path d="M71.25,64.11v-6.48h-5.74v6.48h-1.67v-14.01h1.67v6.02h5.74v-6.02h1.68v14.01h-1.68Z"/>
              <path d="M77.83,57.64v4.96h6.82v1.51h-8.6v-14.01h8.52v1.52h-6.74v4.5h5.85v1.51h-5.85Z"/>
              <path d="M89.81,60.48l-1.13,3.63h-1.78l4.52-14.01h1.49l4.45,14.01h-1.77l-1.11-3.63h-4.68Zm4.21-1.55l-1.85-6.08-1.88,6.08h3.72Z"/>
              <path d="M106.67,59.48c-.2-.3-.45-.55-.75-.75-.31-.2-.65-.37-1.02-.5-.37-.13-.72-.26-1.06-.37-.49-.16-1-.35-1.51-.58-.51-.23-.97-.5-1.39-.82-.42-.33-.77-.71-1.03-1.16-.27-.45-.4-.97-.4-1.57s.13-1.14,.4-1.62c.27-.47,.61-.88,1.04-1.2,.43-.33,.92-.58,1.46-.75,.55-.17,1.09-.26,1.65-.26,.61,0,1.2,.1,1.76,.3s1.07,.49,1.5,.85c.44,.37,.79,.81,1.05,1.33,.26,.52,.4,1.1,.41,1.74h-1.83c-.05-.4-.15-.77-.3-1.1-.15-.33-.34-.61-.59-.85-.24-.24-.53-.42-.87-.55-.34-.13-.72-.2-1.14-.2-.34,0-.67,.05-1,.14-.32,.1-.61,.24-.86,.43-.26,.19-.46,.43-.61,.71-.15,.28-.23,.61-.23,.98,0,.4,.11,.75,.31,1.02,.2,.28,.45,.51,.76,.71,.3,.19,.63,.35,.99,.48s.69,.24,1.01,.34c.52,.16,1.04,.35,1.56,.58s.99,.52,1.42,.87c.42,.33,.77,.73,1.03,1.2,.26,.48,.39,1.02,.39,1.65s-.14,1.18-.42,1.65c-.28,.47-.64,.86-1.08,1.16-.44,.31-.94,.55-1.5,.71-.56,.16-1.12,.24-1.67,.24-.67,0-1.32-.11-1.97-.34s-1.2-.55-1.68-.97c-.42-.37-.76-.79-1.01-1.28-.25-.49-.38-1.04-.4-1.64h1.82c.06,.44,.18,.82,.36,1.16s.41,.62,.69,.85c.28,.24,.61,.42,.98,.53,.37,.12,.77,.18,1.21,.18,.35,0,.69-.04,1.02-.13s.64-.22,.9-.41c.26-.18,.48-.41,.64-.69s.25-.61,.25-1c0-.43-.1-.79-.29-1.09Z"/>
              <path d="M116.57,51.62v12.49h-1.73v-12.49h-4.33v-1.52h10.39v1.52h-4.33Z"/>
              <path d="M137.12,60.48l-1.13,3.63h-1.78l4.52-14.01h1.49l4.45,14.01h-1.77l-1.11-3.63h-4.68Zm4.21-1.55l-1.85-6.08-1.88,6.08h3.72Z"/>
              <path d="M153.97,59.48c-.2-.3-.45-.55-.75-.75-.31-.2-.65-.37-1.02-.5s-.72-.26-1.06-.37c-.49-.16-1-.35-1.51-.58-.51-.23-.97-.5-1.39-.82-.42-.33-.77-.71-1.04-1.16-.27-.45-.4-.97-.4-1.57s.13-1.14,.4-1.62c.27-.47,.61-.88,1.04-1.2s.92-.58,1.46-.75,1.09-.26,1.65-.26c.61,0,1.2,.1,1.76,.3s1.07,.49,1.5,.85c.44,.37,.79,.81,1.05,1.33,.26,.52,.4,1.1,.41,1.74h-1.83c-.05-.4-.15-.77-.3-1.1s-.34-.61-.59-.85c-.24-.24-.53-.42-.87-.55-.34-.13-.72-.2-1.14-.2-.34,0-.67,.05-1,.14-.32,.1-.61,.24-.86,.43-.26,.19-.46,.43-.61,.71-.15,.28-.23,.61-.23,.98,0,.4,.11,.75,.31,1.02,.2,.28,.45,.51,.76,.71,.3,.19,.63,.35,.99,.48,.36,.13,.69,.24,1,.34,.52,.16,1.04,.35,1.56,.58s.99,.52,1.42,.87c.42,.33,.76,.73,1.02,1.2,.26,.48,.39,1.02,.39,1.65s-.14,1.18-.42,1.65c-.28,.47-.64,.86-1.08,1.16-.44,.31-.94,.55-1.5,.71-.56,.16-1.12,.24-1.67,.24-.67,0-1.32-.11-1.97-.34s-1.21-.55-1.68-.97c-.42-.37-.76-.79-1-1.28-.25-.49-.38-1.04-.4-1.64h1.82c.06,.44,.18,.82,.36,1.16,.18,.34,.41,.62,.69,.85,.28,.24,.61,.42,.98,.53,.37,.12,.77,.18,1.21,.18,.35,0,.69-.04,1.02-.13s.64-.22,.9-.41c.26-.18,.48-.41,.65-.69,.17-.28,.25-.61,.25-1,0-.43-.1-.79-.29-1.09Z"/>
              <path d="M167.23,50.1v1.55h-3.36v10.92h3.36v1.54h-8.47v-1.54h3.28v-10.92h-3.28v-1.55h8.47Z"/>
              <path d="M172.59,60.48l-1.13,3.63h-1.78l4.52-14.01h1.49l4.45,14.01h-1.77l-1.11-3.63h-4.68Zm4.21-1.55l-1.85-6.08-1.88,6.08h3.72Z"/>
            </g>
            <polygon points="7.74 84.55 0 30.33 29.57 24.11 48.41 38.94 49.19 45.73 47.63 45.91 46.93 39.77 29.18 25.8 1.77 31.57 9.02 82.33 41.29 69.15 41.88 70.61 7.74 84.55"/>
          </g>
          <g>
            <path d="M132.22,68.98v4.83h5.58v-4.83h1.51v11.54h-1.51v-5.41h-5.58v5.41h-1.49v-11.54h1.49Z"/>
            <path d="M143.38,68.98v6.83c0,2.58,1.15,3.68,2.69,3.68,1.71,0,2.81-1.13,2.81-3.68v-6.83h1.51v6.73c0,3.54-1.87,5-4.36,5-2.36,0-4.14-1.35-4.14-4.93v-6.79h1.51Z"/>
            <path d="M152.97,69.13c.65-.14,1.68-.24,2.72-.24,1.49,0,2.45,.26,3.17,.84,.6,.44,.96,1.13,.96,2.04,0,1.11-.74,2.09-1.95,2.53v.03c1.1,.27,2.38,1.18,2.38,2.89,0,.99-.4,1.75-.98,2.31-.81,.74-2.11,1.08-3.99,1.08-1.03,0-1.81-.07-2.31-.14v-11.35Zm1.49,4.72h1.35c1.57,0,2.5-.82,2.5-1.93,0-1.35-1.03-1.88-2.53-1.88-.69,0-1.08,.05-1.32,.1v3.71Zm0,5.53c.29,.05,.72,.07,1.25,.07,1.54,0,2.96-.57,2.96-2.24,0-1.57-1.35-2.23-2.98-2.23h-1.23v4.4Z"/>
            <path d="M165.33,76.01c0-.62,.43-1.08,1.03-1.08s.99,.45,1.01,1.08c0,.62-.41,1.08-1.03,1.08s-1.03-.46-1.01-1.08Z"/>
            <path d="M177.18,80.51v-3.03h-5.17v-.99l4.96-7.1h1.62v6.91h1.56v1.18h-1.56v3.03h-1.42Zm0-4.21v-3.71c0-.58,.02-1.16,.05-1.75h-.05c-.34,.65-.62,1.13-.92,1.64l-2.72,3.78v.03h3.65Z"/>
          </g>
        </g>
      </g>
    </g>
  </g>
</svg>