<svg width="17" height="15" viewBox="0 0 17 15" fill="none" xmlns="http://www.w3.org/2000/svg">
<path d="M3.34509 5.5H1.34509C0.782593 5.5 0.345093 5.9375 0.345093 6.46875V13.4375C0.345093 13.9688 0.782593 14.4062 1.34509 14.4062H3.34509C3.87634 14.4062 4.34509 13.9688 4.34509 13.4375V6.5C4.34509 5.96875 3.87634 5.5 3.34509 5.5ZM16.3451 6.59375C16.3451 5.46875 15.3763 4.53125 14.2513 4.53125H11.1263C11.4076 3.75 11.5951 3.0625 11.5951 2.65625C11.5951 1.59375 10.7513 0.53125 9.37634 0.53125C7.93884 0.53125 7.53259 1.53125 7.22009 2.34375C6.22009 4.875 5.34509 4.40625 5.34509 5.25C5.34509 5.65625 5.65759 6 6.09509 6C6.25134 6 6.40759 5.96875 6.53259 5.84375C8.93884 3.9375 8.34509 2.03125 9.37634 2.03125C9.90759 2.03125 10.0951 2.40625 10.0951 2.65625C10.0951 2.90625 9.84509 3.90625 9.28259 4.90625C9.22009 5.03125 9.18884 5.15625 9.18884 5.28125C9.18884 5.71875 9.53259 6 9.93884 6H14.2201C14.5638 6.03125 14.8451 6.28125 14.8451 6.59375C14.8451 6.90625 14.5951 7.1875 14.2826 7.1875C13.8763 7.21875 13.5638 7.5625 13.5638 7.9375C13.5638 8.4375 13.9388 8.4375 13.9388 8.84375C13.9388 9.625 12.8451 9.21875 12.8451 10.1562C12.8451 10.5 13.0326 10.5625 13.0326 10.8438C13.0326 11.5625 12.0951 11.2812 12.0951 12.125C12.0951 12.2812 12.1576 12.3125 12.1576 12.4375C12.1576 12.75 11.8763 13.0312 11.5638 13.0312H9.90759C9.09509 13.0312 8.31384 12.75 7.68884 12.2812L6.53259 11.4062C6.40759 11.3125 6.25134 11.25 6.09509 11.25C5.65759 11.25 5.31384 11.625 5.31384 12C5.31384 12.25 5.43884 12.4688 5.62634 12.625L6.78259 13.4688C7.68884 14.1562 8.78259 14.5 9.90759 14.5H11.5638C12.6576 14.5 13.5638 13.6562 13.6263 12.5625C14.1888 12.1875 14.5326 11.5625 14.5326 10.8438C14.5326 10.75 14.5326 10.6562 14.5326 10.5625C15.0638 10.1875 15.4388 9.5625 15.4388 8.84375C15.4388 8.6875 15.4076 8.53125 15.3763 8.34375C15.9388 7.96875 16.3451 7.34375 16.3451 6.59375Z" fill="#1F1F1F"/>
</svg>
